<svg width="62" height="61" viewBox="0 0 62 61" fill="none" xmlns="http://www.w3.org/2000/svg">
<path d="M28.475 14.25H12.75C11.6228 14.25 10.5418 14.6978 9.7448 15.4948C8.94777 16.2918 8.5 17.3728 8.5 18.5V52.5C8.5 53.6272 8.94777 54.7082 9.7448 55.5052C10.5418 56.3022 11.6228 56.75 12.75 56.75H38.25C39.3772 56.75 40.4582 56.3022 41.2552 55.5052C42.0522 54.7082 42.5 53.6272 42.5 52.5V36.775" stroke="#FF2056" stroke-width="4.25" stroke-linecap="round" stroke-linejoin="round"/>
<path d="M4.25 22.75H12.75" stroke="#FF2056" stroke-width="4.25" stroke-linecap="round" stroke-linejoin="round"/>
<path d="M4.25 31.25H12.75" stroke="#FF2056" stroke-width="4.25" stroke-linecap="round" stroke-linejoin="round"/>
<path d="M4.25 39.75H12.75" stroke="#FF2056" stroke-width="4.25" stroke-linecap="round" stroke-linejoin="round"/>
<path d="M4.25 48.25H12.75" stroke="#FF2056" stroke-width="4.25" stroke-linecap="round" stroke-linejoin="round"/>
<path d="M29.5 27.5C27 29.6 26.1667 35.8333 26.1667 35.8333C26.1667 35.8333 32.4 35 34.5 32.5C35.6833 31.1 35.6667 28.95 34.35 27.65C33.7022 27.0317 32.8488 26.6744 31.9537 26.6467C31.0586 26.619 30.1848 26.9229 29.5 27.5Z" stroke="#5075EF" stroke-width="3.33333" stroke-linecap="round" stroke-linejoin="round"/>
<path d="M42 25L37 20C37.8869 17.6991 39.0037 15.4935 40.3333 13.4167C42.2753 10.3117 44.9794 7.75511 48.1883 5.99018C51.3973 4.22525 55.0044 3.31064 58.6667 3.33336C58.6667 7.86669 57.3667 15.8334 48.6667 21.6667C46.5615 22.9979 44.3281 24.1146 42 25Z" stroke="#5075EF" stroke-width="3.33333" stroke-linecap="round" stroke-linejoin="round"/>
<path d="M37 20H28.6667C28.6667 20 29.5833 14.95 32 13.3333C34.7 11.5333 40.3333 13.3333 40.3333 13.3333" stroke="#5075EF" stroke-width="3.33333" stroke-linecap="round" stroke-linejoin="round"/>
<path d="M42 25V33.3334C42 33.3334 47.05 32.4167 48.6667 30C50.4667 27.3 48.6667 21.6667 48.6667 21.6667" stroke="#5075EF" stroke-width="3.33333" stroke-linecap="round" stroke-linejoin="round"/>
</svg>
